<svg xmlns="http://www.w3.org/2000/svg" width="26" height="24" viewBox="0 0 26 24"><defs><style>.a{fill:none;}.b{fill:#888;}.c{fill:#fff;}.d{fill:#66cc80;}</style></defs><g transform="translate(0 0)"><path class="a" d="M0,0H20V20H0Z"/><path class="b" d="M17,5.333H13.667V3.667A1.661,1.661,0,0,0,12,2H8.667A1.661,1.661,0,0,0,7,3.667V5.333H3.667A1.654,1.654,0,0,0,2.008,7L2,16.167a1.661,1.661,0,0,0,1.667,1.667H17a1.661,1.661,0,0,0,1.667-1.667V7A1.661,1.661,0,0,0,17,5.333Zm-5,0H8.667V3.667H12Z" transform="translate(-0.333 -0.333)"/></g><g transform="translate(10 8)"><path class="a" d="M0,0H16V16H0Z"/><rect class="c" width="10" height="8" transform="translate(3 4)"/><path class="d" d="M8.667,2a6.667,6.667,0,1,0,6.667,6.667A6.669,6.669,0,0,0,8.667,2ZM6.86,11.527,4.467,9.133a.665.665,0,1,1,.94-.94l1.927,1.92L11.92,5.527a.665.665,0,1,1,.94.94L7.8,11.527a.664.664,0,0,1-.94,0Z" transform="translate(-0.667 -0.667)"/></g></svg>